<?xml version="1.0" encoding="utf-8"?>
<svg viewBox="363.03 113.892 12.24 20.784" xmlns="http://www.w3.org/2000/svg">
  <path d="M0.55967 0.556355C0.259974 0.849367 0.0916138 1.24672 0.0916138 1.66104C0.0916138 2.07536 0.259974 2.47272 0.55967 2.76573L8.47287 10.5001L0.55967 18.2345C0.268468 18.5292 0.107334 18.9238 0.110977 19.3335C0.114619 19.7432 0.282745 20.1351 0.579144 20.4248C0.875542 20.7145 1.2765 20.8788 1.69565 20.8824C2.11481 20.8859 2.51862 20.7285 2.82013 20.4438L11.8636 11.6048C12.1633 11.3118 12.3316 10.9144 12.3316 10.5001C12.3316 10.0858 12.1633 9.68842 11.8636 9.39541L2.82013 0.556355C2.52034 0.263432 2.1138 0.098877 1.6899 0.098877C1.266 0.098877 0.859457 0.263432 0.55967 0.556355V0.556355Z" fill="#ACACAC" transform="matrix(1, 0, 0, 1, 362.938757, 113.793077)"/>
</svg>