<?xml version="1.0" encoding="utf-8"?>
<svg viewBox="328.045 130.851 22 23.854" xmlns="http://www.w3.org/2000/svg">
  <defs>
    <linearGradient id="paint0_linear_16_3824" x1="0" y1="0" x2="22" y2="24.2" gradientUnits="userSpaceOnUse">
      <stop stop-color="#5643A3"/>
      <stop offset="1" stop-color="#1B2E72"/>
    </linearGradient>
  </defs>
  <path d="M12.2595 0.501128C11.9191 0.179311 11.4684 0 11 0C10.5316 0 10.0809 0.179311 9.7405 0.501128L0.859835 8.89413C0.587917 9.15144 0.3714 9.46156 0.22355 9.8055C0.0757003 10.1494 -0.000369549 10.5199 1.3498e-06 10.8943V21.106C0.000487368 21.835 0.290433 22.534 0.806105 23.0493C1.32178 23.5646 2.02097 23.8541 2.75 23.8541H5.5C6.22935 23.8541 6.92882 23.5644 7.44454 23.0487C7.96027 22.5329 8.25 21.8335 8.25 21.1041V16.5208C8.25 16.2777 8.34658 16.0445 8.51849 15.8726C8.69039 15.7007 8.92355 15.6041 9.16667 15.6041H12.8333C13.0764 15.6041 13.3096 15.7007 13.4815 15.8726C13.6534 16.0445 13.75 16.2777 13.75 16.5208V21.1041C13.75 21.8335 14.0397 22.5329 14.5555 23.0487C15.0712 23.5644 15.7707 23.8541 16.5 23.8541H19.25C19.9793 23.8541 20.6788 23.5644 21.1945 23.0487C21.7103 22.5329 22 21.8335 22 21.1041V10.8925C21.9999 10.5183 21.9234 10.148 21.7752 9.80443C21.6271 9.46083 21.4104 9.15107 21.1383 8.89413L12.2595 0.497461V0.501128Z" fill="url(#paint0_linear_16_3824)" transform="matrix(1, 0, 0, 1, 328.044774, 130.85103)"/>
</svg>