<?xml version="1.0" encoding="utf-8"?>
<svg viewBox="241.395 46.047 180 180" xmlns="http://www.w3.org/2000/svg">
  <defs>
    <filter id="filter0_i_506_166" x="53" y="56" width="17.5498" height="21.5498" filterUnits="userSpaceOnUse" color-interpolation-filters="sRGB">
      <feFlood flood-opacity="0" result="BackgroundImageFix"/>
      <feBlend mode="normal" in="SourceGraphic" in2="BackgroundImageFix" result="shape"/>
      <feColorMatrix in="SourceAlpha" type="matrix" values="0 0 0 0 0 0 0 0 0 0 0 0 0 0 0 0 0 0 127 0" result="hardAlpha"/>
      <feOffset dy="4"/>
      <feGaussianBlur stdDeviation="2"/>
      <feComposite in2="hardAlpha" operator="arithmetic" k2="-1" k3="1"/>
      <feColorMatrix type="matrix" values="0 0 0 0 0 0 0 0 0 0 0 0 0 0 0 0 0 0 0.25 0"/>
      <feBlend mode="normal" in2="shape" result="effect1_innerShadow_506_166"/>
    </filter>
    <filter id="filter1_i_506_166" x="47" y="92" width="15" height="19" filterUnits="userSpaceOnUse" color-interpolation-filters="sRGB">
      <feFlood flood-opacity="0" result="BackgroundImageFix"/>
      <feBlend mode="normal" in="SourceGraphic" in2="BackgroundImageFix" result="shape"/>
      <feColorMatrix in="SourceAlpha" type="matrix" values="0 0 0 0 0 0 0 0 0 0 0 0 0 0 0 0 0 0 127 0" result="hardAlpha"/>
      <feOffset dy="4"/>
      <feGaussianBlur stdDeviation="2"/>
      <feComposite in2="hardAlpha" operator="arithmetic" k2="-1" k3="1"/>
      <feColorMatrix type="matrix" values="0 0 0 0 0 0 0 0 0 0 0 0 0 0 0 0 0 0 0.25 0"/>
      <feBlend mode="normal" in2="shape" result="effect1_innerShadow_506_166"/>
    </filter>
    <filter id="filter2_i_506_166" x="82" y="115" width="14.3999" height="18.3999" filterUnits="userSpaceOnUse" color-interpolation-filters="sRGB">
      <feFlood flood-opacity="0" result="BackgroundImageFix"/>
      <feBlend mode="normal" in="SourceGraphic" in2="BackgroundImageFix" result="shape"/>
      <feColorMatrix in="SourceAlpha" type="matrix" values="0 0 0 0 0 0 0 0 0 0 0 0 0 0 0 0 0 0 127 0" result="hardAlpha"/>
      <feOffset dy="4"/>
      <feGaussianBlur stdDeviation="2"/>
      <feComposite in2="hardAlpha" operator="arithmetic" k2="-1" k3="1"/>
      <feColorMatrix type="matrix" values="0 0 0 0 0 0 0 0 0 0 0 0 0 0 0 0 0 0 0.25 0"/>
      <feBlend mode="normal" in2="shape" result="effect1_innerShadow_506_166"/>
    </filter>
  </defs>
  <circle cx="90" cy="90" r="90" fill="#222237" transform="matrix(1, 0, 0, 1, 241.39534, 46.046509)"/>
  <path fill-rule="evenodd" clip-rule="evenodd" d="M118.995 175.227L58.5 132.525L65.7 49.7249L91.125 30.1499L171.365 128.516C161.008 150.357 142.115 167.364 118.995 175.227Z" fill="#151533" transform="matrix(1, 0, 0, 1, 241.39534, 46.046509)"/>
  <path fill-rule="evenodd" clip-rule="evenodd" d="M137.699 124.953C136.73 125.002 135.755 125.027 134.775 125.027C103.088 125.027 77.3999 99.339 77.3999 67.6517C77.3999 53.3152 82.6581 40.2068 91.3513 30.1499C61.0225 31.6721 36.8999 56.7449 36.8999 87.4517C36.8999 119.139 62.5876 144.827 94.2749 144.827C111.626 144.827 127.178 137.125 137.699 124.953Z" fill="white" transform="matrix(1, 0, 0, 1, 241.39534, 46.046509)"/>
  <g filter="url(#filter0_i_506_166)" transform="matrix(1, 0, 0, 1, 241.39534, 46.046509)">
    <circle cx="61.775" cy="64.775" r="8.775" fill="#EAEAEA"/>
  </g>
  <g filter="url(#filter1_i_506_166)" transform="matrix(1, 0, 0, 1, 241.39534, 46.046509)">
    <circle cx="54.5" cy="99.5" r="7.5" fill="#EAEAEA"/>
  </g>
  <g filter="url(#filter2_i_506_166)" transform="matrix(1, 0, 0, 1, 241.39534, 46.046509)">
    <circle cx="89.2" cy="122.2" r="7.2" fill="#EAEAEA"/>
  </g>
</svg>