<?xml version="1.0" encoding="utf-8"?>
<svg viewBox="345.506 181.018 35 25" xmlns="http://www.w3.org/2000/svg">
  <path d="M2.5 0H15C15.663 0 16.2989 0.263392 16.7678 0.732233C17.2366 1.20107 17.5 1.83696 17.5 2.5C17.5 3.16304 17.2366 3.79893 16.7678 4.26777C16.2989 4.73661 15.663 5 15 5H2.5C1.83696 5 1.20107 4.73661 0.732233 4.26777C0.263392 3.79893 0 3.16304 0 2.5C0 1.83696 0.263392 1.20107 0.732233 0.732233C1.20107 0.263392 1.83696 0 2.5 0V0ZM20 20H32.5C33.163 20 33.7989 20.2634 34.2678 20.7322C34.7366 21.2011 35 21.837 35 22.5C35 23.163 34.7366 23.7989 34.2678 24.2678C33.7989 24.7366 33.163 25 32.5 25H20C19.337 25 18.7011 24.7366 18.2322 24.2678C17.7634 23.7989 17.5 23.163 17.5 22.5C17.5 21.837 17.7634 21.2011 18.2322 20.7322C18.7011 20.2634 19.337 20 20 20ZM2.5 10H32.5C33.163 10 33.7989 10.2634 34.2678 10.7322C34.7366 11.2011 35 11.837 35 12.5C35 13.163 34.7366 13.7989 34.2678 14.2678C33.7989 14.7366 33.163 15 32.5 15H2.5C1.83696 15 1.20107 14.7366 0.732233 14.2678C0.263392 13.7989 0 13.163 0 12.5C0 11.837 0.263392 11.2011 0.732233 10.7322C1.20107 10.2634 1.83696 10 2.5 10V10Z" fill="white" transform="matrix(1, 0, 0, 1, 345.506444, 181.018496)"/>
</svg>