<?xml version="1.0" encoding="utf-8"?>
<svg viewBox="321.679 99.215 20 20" xmlns="http://www.w3.org/2000/svg">
  <defs>
    <linearGradient id="paint0_linear_292_2" x1="4.03921" y1="0.980392" x2="16.902" y2="17.1765" gradientUnits="userSpaceOnUse">
      <stop stop-color="#FAFAFA"/>
      <stop offset="0.6354" stop-color="white"/>
      <stop offset="1" stop-color="#E8E8E8"/>
    </linearGradient>
    <filter id="filter0_i_292_2" x="4.94141" y="3.52954" width="3.05859" height="7.05884" filterUnits="userSpaceOnUse" color-interpolation-filters="sRGB">
      <feFlood flood-opacity="0" result="BackgroundImageFix"/>
      <feBlend mode="normal" in="SourceGraphic" in2="BackgroundImageFix" result="shape"/>
      <feColorMatrix in="SourceAlpha" type="matrix" values="0 0 0 0 0 0 0 0 0 0 0 0 0 0 0 0 0 0 127 0" result="hardAlpha"/>
      <feOffset dy="4"/>
      <feGaussianBlur stdDeviation="2"/>
      <feComposite in2="hardAlpha" operator="arithmetic" k2="-1" k3="1"/>
      <feColorMatrix type="matrix" values="0 0 0 0 0 0 0 0 0 0 0 0 0 0 0 0 0 0 0.25 0"/>
      <feBlend mode="normal" in2="shape" result="effect1_innerShadow_292_2"/>
    </filter>
    <filter id="filter1_i_292_2" x="6.43115" y="11.9216" width="3.84326" height="7.84302" filterUnits="userSpaceOnUse" color-interpolation-filters="sRGB">
      <feFlood flood-opacity="0" result="BackgroundImageFix"/>
      <feBlend mode="normal" in="SourceGraphic" in2="BackgroundImageFix" result="shape"/>
      <feColorMatrix in="SourceAlpha" type="matrix" values="0 0 0 0 0 0 0 0 0 0 0 0 0 0 0 0 0 0 127 0" result="hardAlpha"/>
      <feOffset dy="4"/>
      <feGaussianBlur stdDeviation="2"/>
      <feComposite in2="hardAlpha" operator="arithmetic" k2="-1" k3="1"/>
      <feColorMatrix type="matrix" values="0 0 0 0 0 0 0 0 0 0 0 0 0 0 0 0 0 0 0.25 0"/>
      <feBlend mode="normal" in2="shape" result="effect1_innerShadow_292_2"/>
    </filter>
    <filter id="filter2_i_292_2" x="10.9019" y="6.58813" width="2.50977" height="6.50977" filterUnits="userSpaceOnUse" color-interpolation-filters="sRGB">
      <feFlood flood-opacity="0" result="BackgroundImageFix"/>
      <feBlend mode="normal" in="SourceGraphic" in2="BackgroundImageFix" result="shape"/>
      <feColorMatrix in="SourceAlpha" type="matrix" values="0 0 0 0 0 0 0 0 0 0 0 0 0 0 0 0 0 0 127 0" result="hardAlpha"/>
      <feOffset dy="4"/>
      <feGaussianBlur stdDeviation="2"/>
      <feComposite in2="hardAlpha" operator="arithmetic" k2="-1" k3="1"/>
      <feColorMatrix type="matrix" values="0 0 0 0 0 0 0 0 0 0 0 0 0 0 0 0 0 0 0.25 0"/>
      <feBlend mode="normal" in2="shape" result="effect1_innerShadow_292_2"/>
    </filter>
    <filter id="filter3_i_292_2" x="13.9609" y="11.9216" width="1.25488" height="5.25488" filterUnits="userSpaceOnUse" color-interpolation-filters="sRGB">
      <feFlood flood-opacity="0" result="BackgroundImageFix"/>
      <feBlend mode="normal" in="SourceGraphic" in2="BackgroundImageFix" result="shape"/>
      <feColorMatrix in="SourceAlpha" type="matrix" values="0 0 0 0 0 0 0 0 0 0 0 0 0 0 0 0 0 0 127 0" result="hardAlpha"/>
      <feOffset dy="4"/>
      <feGaussianBlur stdDeviation="2"/>
      <feComposite in2="hardAlpha" operator="arithmetic" k2="-1" k3="1"/>
      <feColorMatrix type="matrix" values="0 0 0 0 0 0 0 0 0 0 0 0 0 0 0 0 0 0 0.25 0"/>
      <feBlend mode="normal" in2="shape" result="effect1_innerShadow_292_2"/>
    </filter>
  </defs>
  <circle cx="10" cy="10" r="10" fill="url(#paint0_linear_292_2)" transform="matrix(1, 0, 0, 1, 321.678563, 99.215036)"/>
  <g filter="url(#filter0_i_292_2)" transform="matrix(1, 0, 0, 1, 321.678563, 99.215036)">
    <circle cx="6.47082" cy="5.05895" r="1.52941" fill="#EAEAEA"/>
  </g>
  <g filter="url(#filter1_i_292_2)" transform="matrix(1, 0, 0, 1, 321.678563, 99.215036)">
    <circle cx="8.35272" cy="13.8432" r="1.92157" fill="#EAEAEA"/>
  </g>
  <g filter="url(#filter2_i_292_2)" transform="matrix(1, 0, 0, 1, 321.678563, 99.215036)">
    <circle cx="12.1568" cy="7.84304" r="1.2549" fill="#EAEAEA"/>
  </g>
  <g filter="url(#filter3_i_292_2)" transform="matrix(1, 0, 0, 1, 321.678563, 99.215036)">
    <circle cx="14.5884" cy="12.5491" r="0.627451" fill="#EAEAEA"/>
  </g>
  <path fill-rule="evenodd" clip-rule="evenodd" d="M10 4.33924e-06C4.47716 3.85641e-06 2.9029e-06 4.47715 2.42008e-06 10C1.93726e-06 15.5228 4.47715 20 10 20C10.6849 20 11.3538 19.9311 12 19.8C7.43552 18.8734 4 14.8379 4 10C4 5.16209 7.43552 1.12658 12 0.20004C11.3538 0.0688636 10.6849 4.39911e-06 10 4.33924e-06Z" fill="black" fill-opacity="0.8" transform="matrix(1, 0, 0, 1, 321.678563, 99.215036)"/>
</svg>