<?xml version="1.0" encoding="utf-8"?>
<svg viewBox="390.186 211.739 20 18" xmlns="http://www.w3.org/2000/svg">
  <defs>
    <linearGradient id="paint0_linear_292_29" x1="0" y1="0" x2="20" y2="18" gradientUnits="userSpaceOnUse">
      <stop stop-color="#5643A3"/>
      <stop offset="1" stop-color="#1B2E72"/>
    </linearGradient>
  </defs>
  <path d="M18 0H2C0.89 0 0 0.89 0 2V16C0 17.11 0.89 18 2 18H18C19.11 18 20 17.11 20 16V2C20 0.89 19.11 0 18 0ZM3 4H8V10H3V4ZM17 14H3V12H17V14ZM17 10H10V8H17V10ZM17 6H10V4H17V6Z" fill="url(#paint0_linear_292_29)" transform="matrix(1, 0, 0, 1, 390.186285, 211.738895)"/>
</svg>