<?xml version="1.0" encoding="utf-8"?>
<svg viewBox="108.027 37.89 17.5 20" xmlns="http://www.w3.org/2000/svg">
  <path d="M9 20C10.125 20 11.125 19.25 11.375 18.125C11.5 17.75 11.25 17.5 10.875 17.5H7.125C6.75 17.5 6.5 17.75 6.625 18.125C6.875 19.25 7.875 20 9 20ZM2.75 6.25C2.75 2.75 5.5 0 9 0C12.5 0 15.25 2.75 15.25 6.25V10L17.375 13.25C17.625 13.5 17.75 13.875 17.75 14.25C17.75 15.25 16.875 16.125 15.875 16.125H2.125C1.125 16.25 0.25 15.375 0.25 14.375C0.25 14 0.375 13.625 0.625 13.375L2.75 10.125V6.25Z" fill="#EBA947" transform="matrix(1, 0, 0, 1, 107.776949, 37.88968)"/>
</svg>