<?xml version="1.0" encoding="utf-8"?>
<svg viewBox="265.432 88.772 17.499 20" xmlns="http://www.w3.org/2000/svg">
  <path d="M8.99996 20C9.60903 20.0002 10.1972 19.7781 10.6541 19.3753C11.111 18.9725 11.4051 18.4168 11.4812 17.8125C11.5025 17.6413 11.36 17.5 11.1875 17.5H6.81246C6.63996 17.5 6.49746 17.6413 6.51871 17.8125C6.59484 18.4168 6.88896 18.9725 7.34583 19.3753C7.8027 19.7781 8.39089 20.0002 8.99996 20Z" fill="white" transform="matrix(1, 0, 0, 1, 265.182194, 88.772081)"/>
  <path fill-rule="evenodd" clip-rule="evenodd" d="M8.99991 1.875C7.83958 1.875 6.72679 2.33594 5.90631 3.15641C5.08584 3.97688 4.62491 5.08968 4.62491 6.25V9.93375C4.62491 10.3663 4.49741 10.7875 4.25741 11.1462L2.12866 14.3412C2.1262 14.345 2.12489 14.3493 2.12491 14.3538L2.12616 14.3612C2.12616 14.3638 2.12866 14.3663 2.13116 14.3687C2.13327 14.3709 2.13583 14.3726 2.13866 14.3737L2.14741 14.375H15.8524L15.8612 14.3737C15.864 14.3727 15.8666 14.371 15.8687 14.3687C15.8709 14.3667 15.8726 14.3641 15.8737 14.3612L15.8749 14.3525C15.875 14.348 15.8737 14.3437 15.8712 14.34L13.7424 11.1475C13.503 10.7884 13.3751 10.3666 13.3749 9.935V6.25C13.3749 5.08968 12.914 3.97688 12.0935 3.15641C11.273 2.33594 10.1602 1.875 8.99991 1.875ZM2.74991 6.25C2.74991 4.5924 3.40839 3.00269 4.58049 1.83058C5.75259 0.65848 7.3423 0 8.99991 0C10.6575 0 12.2472 0.65848 13.4193 1.83058C14.5914 3.00269 15.2499 4.5924 15.2499 6.25V9.93375C15.2499 9.99625 15.2687 10.0563 15.3024 10.1075L17.4312 13.3012C17.6213 13.587 17.7304 13.919 17.7468 14.2618C17.7632 14.6047 17.6863 14.9455 17.5243 15.2481C17.3623 15.5507 17.1212 15.8037 16.8268 15.9801C16.5324 16.1566 16.1956 16.2498 15.8524 16.25H2.14741C1.80397 16.25 1.46698 16.1568 1.17237 15.9803C0.877752 15.8038 0.636562 15.5506 0.474513 15.2478C0.312464 14.945 0.235633 14.6039 0.252213 14.2609C0.268792 13.9179 0.378161 13.5858 0.568656 13.3L2.69741 10.1075C2.73171 10.0561 2.74998 9.99559 2.74991 9.93375V6.25Z" fill="white" transform="matrix(1, 0, 0, 1, 265.182194, 88.772081)"/>
</svg>