<?xml version="1.0" encoding="utf-8"?>
<svg viewBox="396.624 173.712 45 45" xmlns="http://www.w3.org/2000/svg">
  <defs>
    <linearGradient id="paint0_linear_376_113" x1="2" y1="-0.999999" x2="43.5" y2="43.5" gradientUnits="userSpaceOnUse">
      <stop stop-color="#5643A3"/>
      <stop offset="1" stop-color="#1B2E72"/>
    </linearGradient>
  </defs>
  <path fill-rule="evenodd" clip-rule="evenodd" d="M22.5 45C34.9264 45 45 34.9264 45 22.5C45 10.0736 34.9264 0 22.5 0C10.0736 0 0 10.0736 0 22.5C0 34.9264 10.0736 45 22.5 45ZM22.5014 22.6372C27.1074 22.6372 30.8414 19.0168 30.8414 14.5508C30.8414 10.0848 27.1074 6.46436 22.5014 6.46436C18.9037 6.46436 15.8381 8.67307 14.6683 11.7683C15.9205 9.97625 18.0374 8.79856 20.438 8.79856C24.2843 8.79856 27.4023 11.8218 27.4023 15.5512C27.4023 19.2805 24.2843 22.3038 20.438 22.3038C20.3232 22.3038 20.2091 22.3011 20.0956 22.2957C20.8574 22.5179 21.665 22.6372 22.5014 22.6372ZM34.6416 35.1409C31.4916 38.1674 27.2128 40.0278 22.4995 40.0278C17.9995 40.0278 13.8956 38.332 10.792 35.5446C11.1468 32.9476 12.3409 30.52 14.2153 28.6456C14.816 28.0449 15.4735 27.514 16.1753 27.0583C16.4057 28.6094 19.2048 29.8346 22.624 29.8346C26.1512 29.8346 29.0186 28.5308 29.0869 26.9104C29.8766 27.3979 30.6135 27.9787 31.2805 28.6456C33.0574 30.4226 34.2229 32.6966 34.6416 35.1409Z" fill="url(#paint0_linear_376_113)" transform="matrix(1, 0, 0, 1, 396.624487, 173.712359)"/>
</svg>