<?xml version="1.0" encoding="utf-8"?>
<svg viewBox="392.601 248.846 22 22.022" xmlns="http://www.w3.org/2000/svg">
  <defs>
    <linearGradient id="paint0_linear_283_1979" x1="0" y1="0" x2="22" y2="22" gradientUnits="userSpaceOnUse">
      <stop stop-color="#5643A3"/>
      <stop offset="1" stop-color="#1B2E72"/>
    </linearGradient>
  </defs>
  <path d="M21.7279 9.33724L19.2688 8.60319C19.0988 8.00957 18.865 7.43611 18.5715 6.89285L19.7753 4.63931C19.8205 4.55425 19.837 4.45689 19.8225 4.36168C19.8079 4.26647 19.7631 4.17849 19.6946 4.1108L17.9402 2.34907C17.8725 2.28056 17.7845 2.23571 17.6893 2.22116C17.5941 2.20662 17.4967 2.22316 17.4117 2.26833L15.1728 3.46483C14.6242 3.15701 14.0432 2.91083 13.4405 2.73078L12.7064 0.301073C12.6754 0.211531 12.6167 0.134149 12.5389 0.0800665C12.4611 0.0259838 12.3681 -0.00201074 12.2733 0.000112434H9.79223C9.69691 0.000556221 9.60422 0.0314083 9.52765 0.0881788C9.45107 0.144949 9.39461 0.224675 9.36649 0.315754L8.63243 2.73812C8.02465 2.91721 7.4387 3.16341 6.8854 3.47217L4.68324 2.28301C4.59818 2.23784 4.50082 2.2213 4.40561 2.23584C4.3104 2.25039 4.22242 2.29525 4.15473 2.36376L2.37098 4.10346C2.30247 4.17115 2.25762 4.25913 2.24307 4.35434C2.22853 4.44955 2.24507 4.54691 2.29024 4.63197L3.4794 6.83412C3.17114 7.3851 2.92495 7.96857 2.74535 8.57382L0.315642 9.30787C0.224563 9.336 0.144837 9.39246 0.0880664 9.46904C0.0312959 9.54561 0.000443788 9.6383 0 9.73362V12.2147C0.000443788 12.31 0.0312959 12.4027 0.0880664 12.4793C0.144837 12.5559 0.224563 12.6123 0.315642 12.6405L2.76003 13.3745C2.94159 13.9697 3.18774 14.5432 3.49408 15.0849L2.29024 17.3898C2.24507 17.4748 2.22853 17.5722 2.24307 17.6674C2.25762 17.7626 2.30247 17.8506 2.37098 17.9183L4.12536 19.6727C4.19306 19.7412 4.28104 19.786 4.37625 19.8006C4.47146 19.8151 4.56882 19.7986 4.65388 19.7534L6.9221 18.5422C7.45866 18.8318 8.02465 19.0631 8.61041 19.2322L9.34446 21.706C9.37259 21.7971 9.42905 21.8768 9.50562 21.9336C9.5822 21.9903 9.67489 22.0212 9.77021 22.0216H12.2513C12.3466 22.0212 12.4393 21.9903 12.5159 21.9336C12.5925 21.8768 12.6489 21.7971 12.6771 21.706L13.4111 19.2249C13.9919 19.0549 14.5529 18.8236 15.0847 18.5349L17.3676 19.7534C17.4527 19.7986 17.5501 19.8151 17.6453 19.8006C17.7405 19.786 17.8285 19.7412 17.8962 19.6727L19.6505 17.9183C19.719 17.8506 19.7639 17.7626 19.7784 17.6674C19.793 17.5722 19.7765 17.4748 19.7313 17.3898L18.5128 15.1142C18.8044 14.5803 19.0382 14.0168 19.2101 13.4332L21.6839 12.6992C21.7749 12.6711 21.8547 12.6146 21.9114 12.538C21.9682 12.4615 21.9991 12.3688 21.9995 12.2734V9.77033C22.0038 9.67905 21.9801 9.58863 21.9316 9.51121C21.883 9.4338 21.812 9.37309 21.7279 9.33724ZM11.0328 15.0482C10.2343 15.0482 9.45372 14.8114 8.78979 14.3677C8.12586 13.9241 7.60839 13.2936 7.30282 12.5559C6.99725 11.8182 6.9173 11.0064 7.07308 10.2232C7.22886 9.44008 7.61337 8.72071 8.17799 8.15609C8.74262 7.59146 9.46199 7.20695 10.2451 7.05117C11.0283 6.89539 11.8401 6.97534 12.5778 7.28091C13.3155 7.58649 13.946 8.10395 14.3897 8.76788C14.8333 9.43181 15.0701 10.2124 15.0701 11.0109C15.0701 12.0816 14.6447 13.1085 13.8876 13.8657C13.1304 14.6228 12.1035 15.0482 11.0328 15.0482Z" fill="url(#paint0_linear_283_1979)" transform="matrix(1, 0, 0, 1, 392.601355, 248.846393)"/>
</svg>